<svg xmlns="http://www.w3.org/2000/svg" width="900" height="180" viewBox="0 0 900 180" role="img" aria-labelledby="title desc">
<title id="title">Animated terminal profile</title>
<desc id="desc">A terminal types commands with human-like corrections before showing OSINT, artificial intelligence and cybersecurity.</desc>
<style>
  text{font-family:ui-monospace,SFMono-Regular,Consolas,"Liberation Mono",monospace;font-size:14px;font-weight:700;letter-spacing:.35px;text-rendering:geometricPrecision}
  .cmd{fill:#fff}.out{fill:#d1d5db}.cursor{fill:#fff;shape-rendering:crispEdges;animation:blink .72s steps(1,end) infinite}
  @keyframes blink{0%,46%{opacity:1}47%,100%{opacity:0}}
</style>
<rect width="900" height="180" fill="#000"/>
<rect x="1" y="1" width="898" height="178" fill="none" stroke="#30363d" stroke-width="2"/>
<g opacity="0"><rect class="cursor" x="28.0" y="13" width="8" height="16"/><animate attributeName="opacity" values="0;1;0" keyTimes="0;0.000787;0.044094" dur="12.70s" repeatCount="indefinite" calcMode="discrete"/></g>
<g opacity="0"><text x="28" y="27" class="cmd">$</text><rect class="cursor" x="37.6" y="13" width="8" height="16"/><animate attributeName="opacity" values="0;1;0" keyTimes="0;0.044094;0.052756" dur="12.70s" repeatCount="indefinite" calcMode="discrete"/></g>
<g opacity="0"><text x="28" y="27" class="cmd">$ </text><rect class="cursor" x="47.3" y="13" width="8" height="16"/><animate attributeName="opacity" values="0;1;0" keyTimes="0;0.052756;0.066142" dur="12.70s" repeatCount="indefinite" calcMode="discrete"/></g>
<g opacity="0"><text x="28" y="27" class="cmd">$ w</text><rect class="cursor" x="57.0" y="13" width="8" height="16"/><animate attributeName="opacity" values="0;1;0" keyTimes="0;0.066142;0.073228" dur="12.70s" repeatCount="indefinite" calcMode="discrete"/></g>
<g opacity="0"><text x="28" y="27" class="cmd">$ wh</text><rect class="cursor" x="66.6" y="13" width="8" height="16"/><animate attributeName="opacity" values="0;1;0" keyTimes="0;0.073228;0.084252" dur="12.70s" repeatCount="indefinite" calcMode="discrete"/></g>
<g opacity="0"><text x="28" y="27" class="cmd">$ who</text><rect class="cursor" x="76.3" y="13" width="8" height="16"/><animate attributeName="opacity" values="0;1;0" keyTimes="0;0.084252;0.100000" dur="12.70s" repeatCount="indefinite" calcMode="discrete"/></g>
<g opacity="0"><text x="28" y="27" class="cmd">$ whoa</text><rect class="cursor" x="85.9" y="13" width="8" height="16"/><animate attributeName="opacity" values="0;1;0" keyTimes="0;0.100000;0.107874" dur="12.70s" repeatCount="indefinite" calcMode="discrete"/></g>
<g opacity="0"><text x="28" y="27" class="cmd">$ whoam</text><rect class="cursor" x="95.5" y="13" width="8" height="16"/><animate attributeName="opacity" values="0;1;0" keyTimes="0;0.107874;0.118110" dur="12.70s" repeatCount="indefinite" calcMode="discrete"/></g>
<g opacity="0"><text x="28" y="27" class="cmd">$ whoami</text><rect class="cursor" x="105.2" y="13" width="8" height="16"/><animate attributeName="opacity" values="0;1;0" keyTimes="0;0.118110;0.132283" dur="12.70s" repeatCount="indefinite" calcMode="discrete"/></g>
<g opacity="0"><text x="28" y="27" class="cmd">$ whoami</text><rect class="cursor" x="105.2" y="13" width="8" height="16"/><animate attributeName="opacity" values="0;1;0" keyTimes="0;0.132283;0.159843" dur="12.70s" repeatCount="indefinite" calcMode="discrete"/></g>
<g opacity="0"><text x="28" y="27" class="cmd">$ whoami</text><text x="28" y="54" class="out">&gt; xlr-aex</text><rect class="cursor" x="28.0" y="67" width="8" height="16"/><animate attributeName="opacity" values="0;1;0" keyTimes="0;0.159843;0.203150" dur="12.70s" repeatCount="indefinite" calcMode="discrete"/></g>
<g opacity="0"><text x="28" y="27" class="cmd">$ whoami</text><text x="28" y="54" class="out">&gt; xlr-aex</text><text x="28" y="81" class="cmd">$</text><rect class="cursor" x="37.6" y="67" width="8" height="16"/><animate attributeName="opacity" values="0;1;0" keyTimes="0;0.203150;0.211811" dur="12.70s" repeatCount="indefinite" calcMode="discrete"/></g>
<g opacity="0"><text x="28" y="27" class="cmd">$ whoami</text><text x="28" y="54" class="out">&gt; xlr-aex</text><text x="28" y="81" class="cmd">$ </text><rect class="cursor" x="47.3" y="67" width="8" height="16"/><animate attributeName="opacity" values="0;1;0" keyTimes="0;0.211811;0.225197" dur="12.70s" repeatCount="indefinite" calcMode="discrete"/></g>
<g opacity="0"><text x="28" y="27" class="cmd">$ whoami</text><text x="28" y="54" class="out">&gt; xlr-aex</text><text x="28" y="81" class="cmd">$ c</text><rect class="cursor" x="57.0" y="67" width="8" height="16"/><animate attributeName="opacity" values="0;1;0" keyTimes="0;0.225197;0.232283" dur="12.70s" repeatCount="indefinite" calcMode="discrete"/></g>
<g opacity="0"><text x="28" y="27" class="cmd">$ whoami</text><text x="28" y="54" class="out">&gt; xlr-aex</text><text x="28" y="81" class="cmd">$ ca</text><rect class="cursor" x="66.6" y="67" width="8" height="16"/><animate attributeName="opacity" values="0;1;0" keyTimes="0;0.232283;0.243307" dur="12.70s" repeatCount="indefinite" calcMode="discrete"/></g>
<g opacity="0"><text x="28" y="27" class="cmd">$ whoami</text><text x="28" y="54" class="out">&gt; xlr-aex</text><text x="28" y="81" class="cmd">$ cat</text><rect class="cursor" x="76.3" y="67" width="8" height="16"/><animate attributeName="opacity" values="0;1;0" keyTimes="0;0.243307;0.259055" dur="12.70s" repeatCount="indefinite" calcMode="discrete"/></g>
<g opacity="0"><text x="28" y="27" class="cmd">$ whoami</text><text x="28" y="54" class="out">&gt; xlr-aex</text><text x="28" y="81" class="cmd">$ cat </text><rect class="cursor" x="85.9" y="67" width="8" height="16"/><animate attributeName="opacity" values="0;1;0" keyTimes="0;0.259055;0.266929" dur="12.70s" repeatCount="indefinite" calcMode="discrete"/></g>
<g opacity="0"><text x="28" y="27" class="cmd">$ whoami</text><text x="28" y="54" class="out">&gt; xlr-aex</text><text x="28" y="81" class="cmd">$ cat f</text><rect class="cursor" x="95.5" y="67" width="8" height="16"/><animate attributeName="opacity" values="0;1;0" keyTimes="0;0.266929;0.277165" dur="12.70s" repeatCount="indefinite" calcMode="discrete"/></g>
<g opacity="0"><text x="28" y="27" class="cmd">$ whoami</text><text x="28" y="54" class="out">&gt; xlr-aex</text><text x="28" y="81" class="cmd">$ cat fo</text><rect class="cursor" x="105.2" y="67" width="8" height="16"/><animate attributeName="opacity" values="0;1;0" keyTimes="0;0.277165;0.291339" dur="12.70s" repeatCount="indefinite" calcMode="discrete"/></g>
<g opacity="0"><text x="28" y="27" class="cmd">$ whoami</text><text x="28" y="54" class="out">&gt; xlr-aex</text><text x="28" y="81" class="cmd">$ cat foc</text><rect class="cursor" x="114.9" y="67" width="8" height="16"/><animate attributeName="opacity" values="0;1;0" keyTimes="0;0.291339;0.300000" dur="12.70s" repeatCount="indefinite" calcMode="discrete"/></g>
<g opacity="0"><text x="28" y="27" class="cmd">$ whoami</text><text x="28" y="54" class="out">&gt; xlr-aex</text><text x="28" y="81" class="cmd">$ cat focu</text><rect class="cursor" x="124.5" y="67" width="8" height="16"/><animate attributeName="opacity" values="0;1;0" keyTimes="0;0.300000;0.313386" dur="12.70s" repeatCount="indefinite" calcMode="discrete"/></g>
<g opacity="0"><text x="28" y="27" class="cmd">$ whoami</text><text x="28" y="54" class="out">&gt; xlr-aex</text><text x="28" y="81" class="cmd">$ cat focuz</text><rect class="cursor" x="134.2" y="67" width="8" height="16"/><animate attributeName="opacity" values="0;1;0" keyTimes="0;0.313386;0.320472" dur="12.70s" repeatCount="indefinite" calcMode="discrete"/></g>
<g opacity="0"><text x="28" y="27" class="cmd">$ whoami</text><text x="28" y="54" class="out">&gt; xlr-aex</text><text x="28" y="81" class="cmd">$ cat focuz</text><rect class="cursor" x="134.2" y="67" width="8" height="16"/><animate attributeName="opacity" values="0;1;0" keyTimes="0;0.320472;0.369291" dur="12.70s" repeatCount="indefinite" calcMode="discrete"/></g>
<g opacity="0"><text x="28" y="27" class="cmd">$ whoami</text><text x="28" y="54" class="out">&gt; xlr-aex</text><text x="28" y="81" class="cmd">$ cat focu</text><rect class="cursor" x="124.5" y="67" width="8" height="16"/><animate attributeName="opacity" values="0;1;0" keyTimes="0;0.369291;0.385039" dur="12.70s" repeatCount="indefinite" calcMode="discrete"/></g>
<g opacity="0"><text x="28" y="27" class="cmd">$ whoami</text><text x="28" y="54" class="out">&gt; xlr-aex</text><text x="28" y="81" class="cmd">$ cat focus</text><rect class="cursor" x="134.2" y="67" width="8" height="16"/><animate attributeName="opacity" values="0;1;0" keyTimes="0;0.385039;0.396063" dur="12.70s" repeatCount="indefinite" calcMode="discrete"/></g>
<g opacity="0"><text x="28" y="27" class="cmd">$ whoami</text><text x="28" y="54" class="out">&gt; xlr-aex</text><text x="28" y="81" class="cmd">$ cat focus.</text><rect class="cursor" x="143.8" y="67" width="8" height="16"/><animate attributeName="opacity" values="0;1;0" keyTimes="0;0.396063;0.411811" dur="12.70s" repeatCount="indefinite" calcMode="discrete"/></g>
<g opacity="0"><text x="28" y="27" class="cmd">$ whoami</text><text x="28" y="54" class="out">&gt; xlr-aex</text><text x="28" y="81" class="cmd">$ cat focus.t</text><rect class="cursor" x="153.4" y="67" width="8" height="16"/><animate attributeName="opacity" values="0;1;0" keyTimes="0;0.411811;0.419685" dur="12.70s" repeatCount="indefinite" calcMode="discrete"/></g>
<g opacity="0"><text x="28" y="27" class="cmd">$ whoami</text><text x="28" y="54" class="out">&gt; xlr-aex</text><text x="28" y="81" class="cmd">$ cat focus.tx</text><rect class="cursor" x="163.1" y="67" width="8" height="16"/><animate attributeName="opacity" values="0;1;0" keyTimes="0;0.419685;0.429921" dur="12.70s" repeatCount="indefinite" calcMode="discrete"/></g>
<g opacity="0"><text x="28" y="27" class="cmd">$ whoami</text><text x="28" y="54" class="out">&gt; xlr-aex</text><text x="28" y="81" class="cmd">$ cat focus.txt</text><rect class="cursor" x="172.8" y="67" width="8" height="16"/><animate attributeName="opacity" values="0;1;0" keyTimes="0;0.429921;0.444094" dur="12.70s" repeatCount="indefinite" calcMode="discrete"/></g>
<g opacity="0"><text x="28" y="27" class="cmd">$ whoami</text><text x="28" y="54" class="out">&gt; xlr-aex</text><text x="28" y="81" class="cmd">$ cat focus.txt</text><rect class="cursor" x="172.8" y="67" width="8" height="16"/><animate attributeName="opacity" values="0;1;0" keyTimes="0;0.444094;0.467717" dur="12.70s" repeatCount="indefinite" calcMode="discrete"/></g>
<g opacity="0"><text x="28" y="27" class="cmd">$ whoami</text><text x="28" y="54" class="out">&gt; xlr-aex</text><text x="28" y="81" class="cmd">$ cat focus.txt</text><text x="28" y="108" class="out">&gt; OSINT / ARTIFICIAL INTELLIGENCE / CYBERSECURITY</text><rect class="cursor" x="28.0" y="121" width="8" height="16"/><animate attributeName="opacity" values="0;1;0" keyTimes="0;0.467717;0.518898" dur="12.70s" repeatCount="indefinite" calcMode="discrete"/></g>
<g opacity="0"><text x="28" y="27" class="cmd">$ whoami</text><text x="28" y="54" class="out">&gt; xlr-aex</text><text x="28" y="81" class="cmd">$ cat focus.txt</text><text x="28" y="108" class="out">&gt; OSINT / ARTIFICIAL INTELLIGENCE / CYBERSECURITY</text><text x="28" y="135" class="cmd">$</text><rect class="cursor" x="37.6" y="121" width="8" height="16"/><animate attributeName="opacity" values="0;1;0" keyTimes="0;0.518898;0.527559" dur="12.70s" repeatCount="indefinite" calcMode="discrete"/></g>
<g opacity="0"><text x="28" y="27" class="cmd">$ whoami</text><text x="28" y="54" class="out">&gt; xlr-aex</text><text x="28" y="81" class="cmd">$ cat focus.txt</text><text x="28" y="108" class="out">&gt; OSINT / ARTIFICIAL INTELLIGENCE / CYBERSECURITY</text><text x="28" y="135" class="cmd">$ </text><rect class="cursor" x="47.3" y="121" width="8" height="16"/><animate attributeName="opacity" values="0;1;0" keyTimes="0;0.527559;0.540945" dur="12.70s" repeatCount="indefinite" calcMode="discrete"/></g>
<g opacity="0"><text x="28" y="27" class="cmd">$ whoami</text><text x="28" y="54" class="out">&gt; xlr-aex</text><text x="28" y="81" class="cmd">$ cat focus.txt</text><text x="28" y="108" class="out">&gt; OSINT / ARTIFICIAL INTELLIGENCE / CYBERSECURITY</text><text x="28" y="135" class="cmd">$ s</text><rect class="cursor" x="57.0" y="121" width="8" height="16"/><animate attributeName="opacity" values="0;1;0" keyTimes="0;0.540945;0.548031" dur="12.70s" repeatCount="indefinite" calcMode="discrete"/></g>
<g opacity="0"><text x="28" y="27" class="cmd">$ whoami</text><text x="28" y="54" class="out">&gt; xlr-aex</text><text x="28" y="81" class="cmd">$ cat focus.txt</text><text x="28" y="108" class="out">&gt; OSINT / ARTIFICIAL INTELLIGENCE / CYBERSECURITY</text><text x="28" y="135" class="cmd">$ st</text><rect class="cursor" x="66.6" y="121" width="8" height="16"/><animate attributeName="opacity" values="0;1;0" keyTimes="0;0.548031;0.559055" dur="12.70s" repeatCount="indefinite" calcMode="discrete"/></g>
<g opacity="0"><text x="28" y="27" class="cmd">$ whoami</text><text x="28" y="54" class="out">&gt; xlr-aex</text><text x="28" y="81" class="cmd">$ cat focus.txt</text><text x="28" y="108" class="out">&gt; OSINT / ARTIFICIAL INTELLIGENCE / CYBERSECURITY</text><text x="28" y="135" class="cmd">$ sta</text><rect class="cursor" x="76.3" y="121" width="8" height="16"/><animate attributeName="opacity" values="0;1;0" keyTimes="0;0.559055;0.574803" dur="12.70s" repeatCount="indefinite" calcMode="discrete"/></g>
<g opacity="0"><text x="28" y="27" class="cmd">$ whoami</text><text x="28" y="54" class="out">&gt; xlr-aex</text><text x="28" y="81" class="cmd">$ cat focus.txt</text><text x="28" y="108" class="out">&gt; OSINT / ARTIFICIAL INTELLIGENCE / CYBERSECURITY</text><text x="28" y="135" class="cmd">$ stat</text><rect class="cursor" x="85.9" y="121" width="8" height="16"/><animate attributeName="opacity" values="0;1;0" keyTimes="0;0.574803;0.582677" dur="12.70s" repeatCount="indefinite" calcMode="discrete"/></g>
<g opacity="0"><text x="28" y="27" class="cmd">$ whoami</text><text x="28" y="54" class="out">&gt; xlr-aex</text><text x="28" y="81" class="cmd">$ cat focus.txt</text><text x="28" y="108" class="out">&gt; OSINT / ARTIFICIAL INTELLIGENCE / CYBERSECURITY</text><text x="28" y="135" class="cmd">$ statu</text><rect class="cursor" x="95.5" y="121" width="8" height="16"/><animate attributeName="opacity" values="0;1;0" keyTimes="0;0.582677;0.592913" dur="12.70s" repeatCount="indefinite" calcMode="discrete"/></g>
<g opacity="0"><text x="28" y="27" class="cmd">$ whoami</text><text x="28" y="54" class="out">&gt; xlr-aex</text><text x="28" y="81" class="cmd">$ cat focus.txt</text><text x="28" y="108" class="out">&gt; OSINT / ARTIFICIAL INTELLIGENCE / CYBERSECURITY</text><text x="28" y="135" class="cmd">$ status</text><rect class="cursor" x="105.2" y="121" width="8" height="16"/><animate attributeName="opacity" values="0;1;0" keyTimes="0;0.592913;0.607087" dur="12.70s" repeatCount="indefinite" calcMode="discrete"/></g>
<g opacity="0"><text x="28" y="27" class="cmd">$ whoami</text><text x="28" y="54" class="out">&gt; xlr-aex</text><text x="28" y="81" class="cmd">$ cat focus.txt</text><text x="28" y="108" class="out">&gt; OSINT / ARTIFICIAL INTELLIGENCE / CYBERSECURITY</text><text x="28" y="135" class="cmd">$ status </text><rect class="cursor" x="114.9" y="121" width="8" height="16"/><animate attributeName="opacity" values="0;1;0" keyTimes="0;0.607087;0.615748" dur="12.70s" repeatCount="indefinite" calcMode="discrete"/></g>
<g opacity="0"><text x="28" y="27" class="cmd">$ whoami</text><text x="28" y="54" class="out">&gt; xlr-aex</text><text x="28" y="81" class="cmd">$ cat focus.txt</text><text x="28" y="108" class="out">&gt; OSINT / ARTIFICIAL INTELLIGENCE / CYBERSECURITY</text><text x="28" y="135" class="cmd">$ status -</text><rect class="cursor" x="124.5" y="121" width="8" height="16"/><animate attributeName="opacity" values="0;1;0" keyTimes="0;0.615748;0.629134" dur="12.70s" repeatCount="indefinite" calcMode="discrete"/></g>
<g opacity="0"><text x="28" y="27" class="cmd">$ whoami</text><text x="28" y="54" class="out">&gt; xlr-aex</text><text x="28" y="81" class="cmd">$ cat focus.txt</text><text x="28" y="108" class="out">&gt; OSINT / ARTIFICIAL INTELLIGENCE / CYBERSECURITY</text><text x="28" y="135" class="cmd">$ status --</text><rect class="cursor" x="134.2" y="121" width="8" height="16"/><animate attributeName="opacity" values="0;1;0" keyTimes="0;0.629134;0.636220" dur="12.70s" repeatCount="indefinite" calcMode="discrete"/></g>
<g opacity="0"><text x="28" y="27" class="cmd">$ whoami</text><text x="28" y="54" class="out">&gt; xlr-aex</text><text x="28" y="81" class="cmd">$ cat focus.txt</text><text x="28" y="108" class="out">&gt; OSINT / ARTIFICIAL INTELLIGENCE / CYBERSECURITY</text><text x="28" y="135" class="cmd">$ status --p</text><rect class="cursor" x="143.8" y="121" width="8" height="16"/><animate attributeName="opacity" values="0;1;0" keyTimes="0;0.636220;0.647244" dur="12.70s" repeatCount="indefinite" calcMode="discrete"/></g>
<g opacity="0"><text x="28" y="27" class="cmd">$ whoami</text><text x="28" y="54" class="out">&gt; xlr-aex</text><text x="28" y="81" class="cmd">$ cat focus.txt</text><text x="28" y="108" class="out">&gt; OSINT / ARTIFICIAL INTELLIGENCE / CYBERSECURITY</text><text x="28" y="135" class="cmd">$ status --pu</text><rect class="cursor" x="153.4" y="121" width="8" height="16"/><animate attributeName="opacity" values="0;1;0" keyTimes="0;0.647244;0.662992" dur="12.70s" repeatCount="indefinite" calcMode="discrete"/></g>
<g opacity="0"><text x="28" y="27" class="cmd">$ whoami</text><text x="28" y="54" class="out">&gt; xlr-aex</text><text x="28" y="81" class="cmd">$ cat focus.txt</text><text x="28" y="108" class="out">&gt; OSINT / ARTIFICIAL INTELLIGENCE / CYBERSECURITY</text><text x="28" y="135" class="cmd">$ status --pub</text><rect class="cursor" x="163.1" y="121" width="8" height="16"/><animate attributeName="opacity" values="0;1;0" keyTimes="0;0.662992;0.670866" dur="12.70s" repeatCount="indefinite" calcMode="discrete"/></g>
<g opacity="0"><text x="28" y="27" class="cmd">$ whoami</text><text x="28" y="54" class="out">&gt; xlr-aex</text><text x="28" y="81" class="cmd">$ cat focus.txt</text><text x="28" y="108" class="out">&gt; OSINT / ARTIFICIAL INTELLIGENCE / CYBERSECURITY</text><text x="28" y="135" class="cmd">$ status --publ</text><rect class="cursor" x="172.8" y="121" width="8" height="16"/><animate attributeName="opacity" values="0;1;0" keyTimes="0;0.670866;0.681102" dur="12.70s" repeatCount="indefinite" calcMode="discrete"/></g>
<g opacity="0"><text x="28" y="27" class="cmd">$ whoami</text><text x="28" y="54" class="out">&gt; xlr-aex</text><text x="28" y="81" class="cmd">$ cat focus.txt</text><text x="28" y="108" class="out">&gt; OSINT / ARTIFICIAL INTELLIGENCE / CYBERSECURITY</text><text x="28" y="135" class="cmd">$ status --publc</text><rect class="cursor" x="182.4" y="121" width="8" height="16"/><animate attributeName="opacity" values="0;1;0" keyTimes="0;0.681102;0.695276" dur="12.70s" repeatCount="indefinite" calcMode="discrete"/></g>
<g opacity="0"><text x="28" y="27" class="cmd">$ whoami</text><text x="28" y="54" class="out">&gt; xlr-aex</text><text x="28" y="81" class="cmd">$ cat focus.txt</text><text x="28" y="108" class="out">&gt; OSINT / ARTIFICIAL INTELLIGENCE / CYBERSECURITY</text><text x="28" y="135" class="cmd">$ status --publci</text><rect class="cursor" x="192.1" y="121" width="8" height="16"/><animate attributeName="opacity" values="0;1;0" keyTimes="0;0.695276;0.703937" dur="12.70s" repeatCount="indefinite" calcMode="discrete"/></g>
<g opacity="0"><text x="28" y="27" class="cmd">$ whoami</text><text x="28" y="54" class="out">&gt; xlr-aex</text><text x="28" y="81" class="cmd">$ cat focus.txt</text><text x="28" y="108" class="out">&gt; OSINT / ARTIFICIAL INTELLIGENCE / CYBERSECURITY</text><text x="28" y="135" class="cmd">$ status --publci</text><rect class="cursor" x="192.1" y="121" width="8" height="16"/><animate attributeName="opacity" values="0;1;0" keyTimes="0;0.703937;0.752756" dur="12.70s" repeatCount="indefinite" calcMode="discrete"/></g>
<g opacity="0"><text x="28" y="27" class="cmd">$ whoami</text><text x="28" y="54" class="out">&gt; xlr-aex</text><text x="28" y="81" class="cmd">$ cat focus.txt</text><text x="28" y="108" class="out">&gt; OSINT / ARTIFICIAL INTELLIGENCE / CYBERSECURITY</text><text x="28" y="135" class="cmd">$ status --publc</text><rect class="cursor" x="182.4" y="121" width="8" height="16"/><animate attributeName="opacity" values="0;1;0" keyTimes="0;0.752756;0.766929" dur="12.70s" repeatCount="indefinite" calcMode="discrete"/></g>
<g opacity="0"><text x="28" y="27" class="cmd">$ whoami</text><text x="28" y="54" class="out">&gt; xlr-aex</text><text x="28" y="81" class="cmd">$ cat focus.txt</text><text x="28" y="108" class="out">&gt; OSINT / ARTIFICIAL INTELLIGENCE / CYBERSECURITY</text><text x="28" y="135" class="cmd">$ status --publ</text><rect class="cursor" x="172.8" y="121" width="8" height="16"/><animate attributeName="opacity" values="0;1;0" keyTimes="0;0.766929;0.782677" dur="12.70s" repeatCount="indefinite" calcMode="discrete"/></g>
<g opacity="0"><text x="28" y="27" class="cmd">$ whoami</text><text x="28" y="54" class="out">&gt; xlr-aex</text><text x="28" y="81" class="cmd">$ cat focus.txt</text><text x="28" y="108" class="out">&gt; OSINT / ARTIFICIAL INTELLIGENCE / CYBERSECURITY</text><text x="28" y="135" class="cmd">$ status --publi</text><rect class="cursor" x="182.4" y="121" width="8" height="16"/><animate attributeName="opacity" values="0;1;0" keyTimes="0;0.782677;0.796063" dur="12.70s" repeatCount="indefinite" calcMode="discrete"/></g>
<g opacity="0"><text x="28" y="27" class="cmd">$ whoami</text><text x="28" y="54" class="out">&gt; xlr-aex</text><text x="28" y="81" class="cmd">$ cat focus.txt</text><text x="28" y="108" class="out">&gt; OSINT / ARTIFICIAL INTELLIGENCE / CYBERSECURITY</text><text x="28" y="135" class="cmd">$ status --public</text><rect class="cursor" x="192.1" y="121" width="8" height="16"/><animate attributeName="opacity" values="0;1;0" keyTimes="0;0.796063;0.803150" dur="12.70s" repeatCount="indefinite" calcMode="discrete"/></g>
<g opacity="0"><text x="28" y="27" class="cmd">$ whoami</text><text x="28" y="54" class="out">&gt; xlr-aex</text><text x="28" y="81" class="cmd">$ cat focus.txt</text><text x="28" y="108" class="out">&gt; OSINT / ARTIFICIAL INTELLIGENCE / CYBERSECURITY</text><text x="28" y="135" class="cmd">$ status --public</text><rect class="cursor" x="192.1" y="121" width="8" height="16"/><animate attributeName="opacity" values="0;1;0" keyTimes="0;0.803150;0.830709" dur="12.70s" repeatCount="indefinite" calcMode="discrete"/></g>
<g opacity="0"><text x="28" y="27" class="cmd">$ whoami</text><text x="28" y="54" class="out">&gt; xlr-aex</text><text x="28" y="81" class="cmd">$ cat focus.txt</text><text x="28" y="108" class="out">&gt; OSINT / ARTIFICIAL INTELLIGENCE / CYBERSECURITY</text><text x="28" y="135" class="cmd">$ status --public</text><text x="28" y="162" class="out">&gt; ONLINE</text><rect class="cursor" x="105.2" y="148" width="8" height="16"/><animate attributeName="opacity" values="0;1;0" keyTimes="0;0.830709;0.972441" dur="12.70s" repeatCount="indefinite" calcMode="discrete"/></g>
</svg>
